<svg xmlns="http://www.w3.org/2000/svg" viewBox="0 0 544.25 622"><defs><style>.cls-1{fill:#fff;}</style></defs><title>activities-w</title><g id="Layer_2" data-name="Layer 2"><g id="Layer_1-2" data-name="Layer 1"><path class="cls-1" d="M531.59,307.07c-8.16-8.49-17.35-11.86-26.68-11.86-17.76,0-36.07,12.17-49,24.59-.22.21-62.25,51.66-83.33,72.45-3.83,3.77-11.28,6.83-16.65,6.83a112.16,112.16,0,0,1-167.69,0h-1.83a30.12,30.12,0,0,1-17-6.38L86.5,320.65c-12.66-12.17-30.57-25-47.94-25a32.64,32.64,0,0,0-22.33,8.79c-24.49,21.88-9,50.38,10.44,69,.4.37,93.11,89.19,93.11,89.19s36.46,38.67,39.06,62.1v56A41.3,41.3,0,0,0,200.15,622H349.27a41.31,41.31,0,0,0,41.31-41.3v-56c2.58-23.43,36.79-62.1,36.79-62.1l90.81-90.11C534.76,355.44,551.39,327.67,531.59,307.07Z"/><circle class="cls-1" cx="272.13" cy="324.37" r="92.94"/><circle class="cls-1" cx="48.59" cy="208.95" r="48.59"/><circle class="cls-1" cx="272.13" cy="48.59" r="48.59"/><path class="cls-1" d="M136,53.45a48.6,48.6,0,1,0,41.2,22.81A48.44,48.44,0,0,0,136,53.45Z"/><path class="cls-1" d="M382.39,138.35a48.58,48.58,0,1,0-15.37-67A48.33,48.33,0,0,0,382.39,138.35Z"/><circle class="cls-1" cx="495.66" cy="208.95" r="48.59"/></g></g></svg>