<svg xmlns="http://www.w3.org/2000/svg" viewBox="0 0 440 440"><defs><style>.cls-1{fill:#fff;}</style></defs><title>svg</title><g id="Layer_2" data-name="Layer 2"><g id="Layer_1-2" data-name="Layer 1"><path class="cls-1" d="M120,100a20.06,20.06,0,0,1-20,20H20A20.06,20.06,0,0,1,0,100V20A20.06,20.06,0,0,1,20,0h80a20.06,20.06,0,0,1,20,20Z"/><path class="cls-1" d="M120,260a20.06,20.06,0,0,1-20,20H20A20.06,20.06,0,0,1,0,260V180a20.06,20.06,0,0,1,20-20h80a20.06,20.06,0,0,1,20,20Z"/><path class="cls-1" d="M120,420a20.06,20.06,0,0,1-20,20H20A20.06,20.06,0,0,1,0,420V340a20.06,20.06,0,0,1,20-20h80a20.06,20.06,0,0,1,20,20Z"/><path class="cls-1" d="M280,100a20.06,20.06,0,0,1-20,20H180a20.06,20.06,0,0,1-20-20V20A20.06,20.06,0,0,1,180,0h80a20.06,20.06,0,0,1,20,20Z"/><path class="cls-1" d="M280,260a20.06,20.06,0,0,1-20,20H180a20.06,20.06,0,0,1-20-20V180a20.06,20.06,0,0,1,20-20h80a20.06,20.06,0,0,1,20,20Z"/><path class="cls-1" d="M280,420a20.06,20.06,0,0,1-20,20H180a20.06,20.06,0,0,1-20-20V340a20.06,20.06,0,0,1,20-20h80a20.06,20.06,0,0,1,20,20Z"/><path class="cls-1" d="M440,100a20.06,20.06,0,0,1-20,20H340a20.06,20.06,0,0,1-20-20V20A20.06,20.06,0,0,1,340,0h80a20.06,20.06,0,0,1,20,20Z"/><path class="cls-1" d="M440,260a20.06,20.06,0,0,1-20,20H340a20.06,20.06,0,0,1-20-20V180a20.06,20.06,0,0,1,20-20h80a20.06,20.06,0,0,1,20,20Z"/><path class="cls-1" d="M440,420a20.06,20.06,0,0,1-20,20H340a20.06,20.06,0,0,1-20-20V340a20.06,20.06,0,0,1,20-20h80a20.06,20.06,0,0,1,20,20Z"/></g></g></svg>