<svg xmlns="http://www.w3.org/2000/svg" viewBox="0 0 476 305.84"><defs><style>.cls-1{fill:#fff;}</style></defs><title>cardiac-sensor-w</title><g id="Layer_2" data-name="Layer 2"><g id="Layer_1-2" data-name="Layer 1"><path class="cls-1" d="M145.86,12.23a41.75,41.75,0,0,0-59.05,0L79.05,20l-7.76-7.76A41.76,41.76,0,0,0,12.23,71.29l66.82,66.82,66.81-66.82a41.76,41.76,0,0,0,0-59.06"/><path class="cls-1" d="M349.07,52.23c-61,0-112.49,43.71-124.7,101.25h19C255.08,105.68,297.78,70,349.07,70c60.33,0,108.66,49.31,108.66,109.64a108.72,108.72,0,0,1-213.85,27.66H224.61c12.78,56.56,64,98.53,124.46,98.53,70,0,126.93-56.17,126.93-126.19S419.09,52.23,349.07,52.23Zm-2.22,48.4a78.89,78.89,0,0,0-74.58,52.85H292a60,60,0,0,1,54.82-35.32,61,61,0,0,1,0,122A60.35,60.35,0,0,1,293,207.31H273a79,79,0,0,0,73.83,50.37c43.46,0,79.27-34.81,79.27-78.28S390.31,100.63,346.85,100.63ZM189.06,119.4a7.94,7.94,0,0,0-1,.24h-.74a9.14,9.14,0,0,0-6.18,5.19l-24.44,51.86-19,40.25-11.85-39a9.22,9.22,0,0,0-8.64-6.42h-38a9,9,0,1,0,0,18h31.36l17,54.82c2.07,6.77,13.3,7.78,16.54,1.48l29.14-61.73L188.81,151l13.09,32.84a9.2,9.2,0,0,0,8.15,5.68H319a32.55,32.55,0,1,0,30.86-42.72,33,33,0,0,0-31.6,24.69h-102l-18.77-46.42a9.19,9.19,0,0,0-8.39-5.68Z"/></g></g></svg>