<svg xmlns="http://www.w3.org/2000/svg" viewBox="0 0 298.35 317"><defs><style>.cls-1{fill:#fff;}</style></defs><title>close-w</title><g id="Layer_2" data-name="Layer 2"><g id="Layer_1-2" data-name="Layer 1"><path class="cls-1" d="M149.19,210.6l96.57,98.86c9.69,10,16,10.1,25.86,0L291,289.62c9.49-9.71,10.14-16.09,0-26.47L188.76,158.5,291,53.85c9.58-9.83,9.76-16.47,0-26.48L271.62,7.54c-10.05-10.29-16.26-9.81-25.85,0L149.19,106.4,52.63,7.54C43-2.27,36.82-2.75,26.77,7.54L7.4,27.37c-9.77,10-9.6,16.64,0,26.48L109.63,158.5,7.4,263.15c-10.13,10.38-9.6,16.76,0,26.47l19.37,19.84c9.78,10.1,16.08,10,25.86,0Z"/></g></g></svg>