<svg xmlns="http://www.w3.org/2000/svg" viewBox="0 0 305.01 321"><defs><style>.cls-1{fill:#fff;}</style></defs><title>e1fo</title><g id="Layer_2" data-name="Layer 2"><g id="Layer_1-2" data-name="Layer 1"><polygon class="cls-1" points="245.65 291.36 245.65 321 305 321 305 291.36 305.01 291.32 305 291.28 305 261.65 245.65 261.65 245.65 291.28 245.65 291.32 245.65 291.36"/><circle class="cls-1" cx="152.5" cy="291.32" r="29.68"/><circle class="cls-1" cx="29.68" cy="291.32" r="29.68"/><circle class="cls-1" cx="275.32" cy="160.5" r="29.68"/><polygon class="cls-1" points="122.83 160.54 122.83 190.18 182.18 190.18 182.18 160.54 182.19 160.5 182.18 160.46 182.18 130.82 122.83 130.82 122.83 160.46 122.82 160.5 122.83 160.54"/><circle class="cls-1" cx="29.68" cy="160.5" r="29.68"/><circle class="cls-1" cx="275.32" cy="29.68" r="29.68"/><circle class="cls-1" cx="152.5" cy="29.68" r="29.68"/><polygon class="cls-1" points="0 0 0 29.64 0 29.68 0 29.72 0 59.35 59.36 59.35 59.36 29.72 59.36 29.68 59.36 29.64 59.36 0 0 0"/></g></g></svg>