<svg xmlns="http://www.w3.org/2000/svg" viewBox="0 0 309.73 413"><defs><style>.cls-1{fill:#fff;}</style></defs><title>erase-w</title><g id="Layer_2" data-name="Layer 2"><g id="Layer_1-2" data-name="Layer 1"><path class="cls-1" d="M283.92,43.05H232.29V25.81A25.84,25.84,0,0,0,206.48,0H103.23A25.84,25.84,0,0,0,77.42,25.81V43.05H25.81A25.78,25.78,0,0,0,0,68.86v34.42H309.73V68.86A25.83,25.83,0,0,0,283.92,43.05ZM94.63,25.81a8.61,8.61,0,0,1,8.6-8.6H206.48a8.61,8.61,0,0,1,8.6,8.6V43H94.63Z"/><path class="cls-1" d="M17.21,370a43.09,43.09,0,0,0,43,43H249.5a43.09,43.09,0,0,0,43-43V120.48H17.21ZM223.68,163.47a8.61,8.61,0,1,1,17.21,0V370a8.61,8.61,0,0,1-17.21,0Zm-51.62,0a8.61,8.61,0,1,1,17.21,0V370a8.61,8.61,0,0,1-17.21,0Zm-51.62,0a8.61,8.61,0,1,1,17.21,0V370a8.61,8.61,0,0,1-17.21,0Zm-51.62,0a8.61,8.61,0,1,1,17.21,0V370a8.61,8.61,0,0,1-17.21,0Z"/></g></g></svg>