<svg xmlns="http://www.w3.org/2000/svg" viewBox="0 0 299.19 282.59"><defs><style>.cls-1{fill:#fff;}</style></defs><title>excel-w</title><g id="Layer_2" data-name="Layer 2"><g id="Layer_1-2" data-name="Layer 1"><path class="cls-1" d="M170.73,242.83V0H151.12C100.76,9.1,50.54,17.51,0,26.25V255.93c49.72,8.78,100.08,17.56,150.12,26.66h20.47V242.83Zm-74.06-50.4A389.41,389.41,0,0,1,80.2,151.21c-4.55,13.33-10.83,25.89-16,38.94-7.18,0-14.37-.41-21.56-.68,8.42-16.51,16.56-33.16,25.25-49.54C60.55,123,52.41,106.45,44.81,89.66l21.74-1.23C71.42,101.26,76.79,114,80.84,127.1c4.55-14,10.78-27.29,16.33-40.58q11.14-.76,22.33-1.36-13.09,26.93-26.43,54c9.1,18.19,18.2,36.62,27.3,55C112.45,193.52,104.58,193,96.67,192.43Z"/><path class="cls-1" d="M179,31.48V48.9h34.8V74.61H179v14.1h34.8v25.7H179v14.1h34.8v25.66H179v14.1h34.8v25.48H179v14.92h34.8v24.88H179V251H299.19V31.48Zm93.66,202.25H222.09V208.85h50.58Zm0-39.8H222.09v-25.7h50.58Zm0-39.81H222.09V128.47h50.58Zm0-39.8H222.09V88.66h50.58Zm0-39.81H222.09V48.9h50.58Z"/></g></g></svg>