<svg xmlns="http://www.w3.org/2000/svg" viewBox="0 0 351.03 377.56"><defs><style>.cls-1{fill:#fff;}</style></defs><title>f1fo</title><g id="Layer_2" data-name="Layer 2"><g id="Layer_1-2" data-name="Layer 1"><polygon class="cls-1" points="141.27 84.03 172.68 9.27 116.28 67.89 84.1 0 86.17 76.29 0 41.58 68.17 100.74 9.8 136.3 86.75 132.25 61.75 203.96 120.62 148.32 79.84 176.01 98.05 123.76 40.54 126.78 81.45 101.86 40.62 66.42 94.36 88.07 92.98 37.06 114.06 81.55 149.04 45.19 141.27 84.03"/><path class="cls-1" d="M196.15,146.81C64.54,190.7,105.48,390.3,245,376.91s141.76-217.13,4.21-235.19c.18-11.94-10.77-27.86-23.33-26.65-5.18-39.6-24.77-35.62-54.83-20.36-17.33,8.8-37.33,19-53.86,9l-6.09,10.11c22.14,13.35,45.26,1.62,65.28-8.55,22.49-11.42,33.91-17.82,37.76,10.94-12.7,1.22-20.47,18.81-18,30.61Z"/></g></g></svg>