<svg xmlns="http://www.w3.org/2000/svg" viewBox="0 0 356.56 356.39"><defs><style>.cls-1{fill:#fff;}</style></defs><title>f2e</title><g id="Layer_2" data-name="Layer 2"><g id="Layer_1-2" data-name="Layer 1"><path class="cls-1" d="M332.32,268.12a178.54,178.54,0,0,0,24.24-89.83,180.51,180.51,0,0,0-3.8-36.86A178.37,178.37,0,0,0,184.49.18L178.27,0a178.24,178.24,0,0,0-177,157h0A178.38,178.38,0,0,0,332.19,268.39h0Zm-4.41-20.61-19.42-63.66,12.36-36.46,19.82,1.72a168,168,0,0,1,2.65,29.36A165.65,165.65,0,0,1,328,247.55Zm-71,55.48L198,286.26l-1.81-51.07,59.6-54.29c11.08,3.88,32.31,11.16,42.51,14.65l20.92,68.51a165,165,0,0,1-11,15.76A281.9,281.9,0,0,1,256.93,303ZM92.19,250.82l-56.55-24L13.57,171.71a76.06,76.06,0,0,1,.75-10.59l54.25-45.6,35.32,13.24,17.35,82.77Zm41.58-44.15-16.82-80c10-8.83,30.9-26.22,42.82-34.74l78.53,24.54,9.18,53.9L188.6,224.2ZM204,26.13l45.78,15.63,21.45,49.75L245.36,105l-81-25.47c-2.87-7.59-7.59-19.29-12.58-29.22ZM337.67,135.38,320,133.8,284.7,88.73,264.65,42.86l5.61-1.41a48.54,48.54,0,0,1,4.42,3.09A164.76,164.76,0,0,1,337.67,135.38Zm-153.58-122a19.74,19.74,0,0,1,4,.27L190.36,18,141.81,40.7c-10.29,1.68-38.32,6.62-53,13.24L78.42,47a165.29,165.29,0,0,1,99.85-33.77ZM67.56,55.88l12,8L66.15,100.29,17.59,141a164.24,164.24,0,0,1,50-85.15ZM34.23,258.94c-.88-1.59-1.68-3.27-2.51-4.9l5-12.45,55.8,23.66a225.33,225.33,0,0,0,32.4,36.64l-7.81,29.88A165.33,165.33,0,0,1,34.23,259Zm144,84.4a164.78,164.78,0,0,1-48.56-7.28l8-30.9,44.93-9.49L249.2,314.6l-2.64,13.77c-1.37.62-2.74,1.37-4.15,1.95A164.16,164.16,0,0,1,178.27,343.34Z"/></g></g></svg>