<svg xmlns="http://www.w3.org/2000/svg" viewBox="0 0 771.9 454.49"><defs><style>.cls-1{fill:#2980b9;}.cls-2{fill:#2bbea2;}</style></defs><title>fuvime_2</title><g id="Layer_2" data-name="Layer 2"><g id="Layer_1-2" data-name="Layer 1"><polygon class="cls-1" points="300 332.58 428 332.58 428 237.58 437 237.58 365 175.58 290 237.58 300 237.58 300 332.58"/><path class="cls-2" d="M191.5,145.07c-2.1-9.46-9.05-34.54-32.08-52.36a88.21,88.21,0,0,0-31.08-15.1c-29.32-8.39-54.2-1.13-61.16,1C24.91,91.55,4.57,126.63,0,135c.33.34.66.68,1,1a70,70,0,0,0,13,10.07l178-.5"/><path class="cls-2" d="M35,159.58a209.06,209.06,0,0,1,32,25,224.22,224.22,0,0,1,16,17s21.32,24.09,26,38l2,6c2.16,4.77,5.2,11.3,9,19,6.61,13.41,12.07,23.32,13,25,14,25.31,43.82,60.14,48,65h89v-194l-35.5-.5a13.55,13.55,0,0,1-.5,1.5,7.12,7.12,0,0,0-1,2c-.43,1.46-4.06,8.85-10,11a13.06,13.06,0,0,1-8,0c-9.68-2.58-13.53-13.58-14-15Z"/><path class="cls-2" d="M195,369.58a193.1,193.1,0,0,0,24,25,195.23,195.23,0,0,0,51,32v-57Z"/><path class="cls-2" d="M286,434.58c11.44,3.44,26.35,7.46,44,11a462.1,462.1,0,0,0,47,7,437.57,437.57,0,0,0,69,1v-84H286Z"/><path class="cls-2" d="M461,449.58a392.3,392.3,0,0,0,44-7c63-13.73,112.29-40.77,147-65a51.45,51.45,0,0,1-22-9H461Z"/><path class="cls-2" d="M609,353.58a134.34,134.34,0,0,1-50-73c7.54,5.33,15.87,10.73,25,16a321.53,321.53,0,0,0,49,23c11.33,3.22,23.34,6.27,36,9a576.37,576.37,0,0,0,63,10l1-2c5.72-11.53,28-58,36-126a426.86,426.86,0,0,0,1-90,47.29,47.29,0,0,1-2,5c-4.88,10.43-12.47,16.55-17,20-29,22.14-48,31-48,31a296.14,296.14,0,0,1-45.1,17.35S643.76,198,629,200.58c-34.66,6-73.75,2.75-82,2a61.36,61.36,0,0,1-1-8s-.19-3.28,0-7c.27-5.34,1.57-15.31,4-28H461v195Z"/><path class="cls-2" d="M555.31,145.08a109.43,109.43,0,0,1,8-25.91,115.79,115.79,0,0,1,25-34.88,124.92,124.92,0,0,1,33.93-22.92,131.61,131.61,0,0,1,31.94-10c11.54-2,20.49-2,34.93-2,10.79,0,19.73.53,26,1l-1-1C698.59,34.23,681.64,27,666.1,21.51c-24-8.44-42.9-15.12-73.86-18.94C564.9-.8,519-3.07,461.5,10.54V146.08l93.5-.5Z"/><path class="cls-2" d="M446,13.58a374.78,374.78,0,0,0-56,18,379.87,379.87,0,0,0-105,65v49H446Z"/><path class="cls-2" d="M240.42,139.73c.57-1.67,2.86-7.59,13.62-18.14a139.73,139.73,0,0,1,17.46-14.51l-.94,39h-32C238.27,146,240.3,140.07,240.42,139.73Z"/></g></g></svg>