<svg xmlns="http://www.w3.org/2000/svg" viewBox="0 0 443.62 507"><defs><style>.cls-1{fill:#fff;}</style></defs><title>gloves-w</title><g id="Layer_2" data-name="Layer 2"><g id="Layer_1-2" data-name="Layer 1"><path class="cls-1" d="M155.57,488.89H144.85a9.06,9.06,0,1,0,0,18.11h10.72A25.35,25.35,0,0,1,155.57,488.89Z"/><circle class="cls-1" cx="181.06" cy="497.95" r="9.05"/><circle class="cls-1" cx="217.27" cy="497.95" r="9.05"/><path class="cls-1" d="M28.43,285a17.61,17.61,0,0,0-23.69,1.31,17.17,17.17,0,0,0-.32,23.34l3.89,4.17,25-25Z"/><path class="cls-1" d="M257.39,13a14.55,14.55,0,0,0,.08-1.87A11.12,11.12,0,0,0,248.38.21,11.25,11.25,0,0,0,235.22,9l-2.41,18.14h24Z"/><path class="cls-1" d="M86.1,349l1.71,1.29a13.14,13.14,0,0,0,13.79,1.53,12.11,12.11,0,0,0,6-6L81.47,325.75v14.12A11.49,11.49,0,0,0,86.1,349Z"/><path class="cls-1" d="M149.58,48.31a11.26,11.26,0,0,0-22.48.94V72.43h24.33Z"/><path class="cls-1" d="M364.8,68.69a13.1,13.1,0,0,0,.5-3.24,11.24,11.24,0,0,0-21.81-3.79l-5,15.79L361,85.28Z"/><path class="cls-1" d="M356.22,284.93a9.05,9.05,0,0,1-16.69-1.09,56.18,56.18,0,0,0-14.42-22,9.08,9.08,0,0,1-2.5-8.5L357,103l-24-8.33L289.55,231.52a9.09,9.09,0,0,1-10.73,6.07,124.17,124.17,0,0,0-22.2-3.21,9.06,9.06,0,0,1-8.56-9.44L256,45.26H230.39L204.88,236.68a9,9,0,0,1-5.53,7.17,83.19,83.19,0,0,0-19.75,11.24A9.05,9.05,0,0,1,165,248.67L152.82,90.53H127.1V341.68a9.15,9.15,0,0,1-.68,3.31,29.88,29.88,0,0,1-17.19,23.25,31.69,31.69,0,0,1-13.34,3,31,31,0,0,1-19-6.51l-1.71-1.29a29.55,29.55,0,0,1-11.77-23.53v-28L47.84,299.93,20.66,327.11l44.16,47.33c47.47,51.94,75,79,97.94,96.35h148.4a43.59,43.59,0,0,1,3.39-3.67,149.34,149.34,0,0,0,39.17-53.84,662.42,662.42,0,0,0,25-82.61,639.57,639.57,0,0,1,27.5-89.25c6.19-14.81,12.42-28.15,18.45-41,1.84-4,3.72-8.05,5.6-12.11l-22.52-7.8ZM316.86,398.36a18.12,18.12,0,0,1-18.1,18.1v18.11a9.06,9.06,0,0,1-18.11,0V416.46H262.54v18.11a9.05,9.05,0,1,1-18.1,0V416.46H226.33v18.11a9.06,9.06,0,0,1-18.11,0V416.46H190.11v18.11a9.05,9.05,0,0,1-18.1,0V416.46a18.12,18.12,0,0,1-18.11-18.1V325.93A18.13,18.13,0,0,1,172,307.82V289.71a9.05,9.05,0,0,1,18.1,0v18.11h18.11V289.71a9.06,9.06,0,0,1,18.11,0v18.11h18.11V289.71a9.05,9.05,0,0,1,18.1,0v18.11h18.11V289.71a9.06,9.06,0,0,1,18.11,0v18.11a18.12,18.12,0,0,1,18.1,18.11Z"/><path class="cls-1" d="M224.29,369.07a181.43,181.43,0,0,0-43.23-6.93H172v36.22H298.77V380.07A330.06,330.06,0,0,1,224.29,369.07Z"/><path class="cls-1" d="M437.23,145.63l-.5-.19a11.3,11.3,0,0,0-14.31,5.19l-6.64,13.47,21.9,7.58c1.7-3.87,3.4-7.62,5.1-11.67A11.23,11.23,0,0,0,437.23,145.63Z"/><path class="cls-1" d="M325.92,488.89H315.2a25.46,25.46,0,0,1,0,18.11h10.72a9.06,9.06,0,0,0,0-18.11Z"/><path class="cls-1" d="M228.53,351.47A315.24,315.24,0,0,0,298.76,362v-36H172V344h9.05A197.66,197.66,0,0,1,228.53,351.47Z"/><circle class="cls-1" cx="253.49" cy="497.95" r="9.05"/><circle class="cls-1" cx="289.7" cy="497.95" r="9.05"/></g></g></svg>