<svg xmlns="http://www.w3.org/2000/svg" viewBox="0 0 52 136.93"><defs><style>.cls-1{fill:#fff;}</style></defs><title>info-w_1</title><g id="Layer_2" data-name="Layer 2"><g id="Layer_1-2" data-name="Layer 1"><path class="cls-1" d="M46.93,27.66A15.06,15.06,0,0,0,52,16.22,15.13,15.13,0,0,0,46.93,4.77,17.18,17.18,0,0,0,34.74,0,17.37,17.37,0,0,0,22.5,4.77a15.17,15.17,0,0,0-5.08,11.45A15.11,15.11,0,0,0,22.5,27.66a17.45,17.45,0,0,0,12.24,4.72A17.26,17.26,0,0,0,46.93,27.66ZM39.15,132.74c6.09-2.85,9.32-8.21,6.15-10.67-1.82-1.41-4.21.93-6,.93-3.75,0-6.39-.62-7.9-1.85s-2.27-3.55-2.27-7a37.48,37.48,0,0,1,.67-6,71.54,71.54,0,0,1,1.6-7.08l7.24-25.65a43.38,43.38,0,0,0,1.46-7.75c.25-2.85.38-4.81.38-5.92a16.88,16.88,0,0,0-5.69-13.19c-3.76-3.37-9.16-5.08-16.15-5.08A37.43,37.43,0,0,0,6.33,45.61C-2.16,48.58-.27,56,1.61,56c3.83,0,6.39.65,7.75,2s2.06,3.57,2.06,6.87a32.93,32.93,0,0,1-.68,6c-.45,2.2-1,4.54-1.63,7L1.83,103.59c-.63,2.71-1.09,5.13-1.4,7.28A47.27,47.27,0,0,0,0,117.19a16.71,16.71,0,0,0,5.84,13.09,26.08,26.08,0,0,0,16.94,6.65C27.34,136.93,33.86,135.23,39.15,132.74Z"/></g></g></svg>