<svg xmlns="http://www.w3.org/2000/svg" viewBox="0 0 572.32 550.85"><defs><style>.cls-1{fill:#fff;}</style></defs><title>left-hand-w</title><g id="Layer_2" data-name="Layer 2"><g id="Layer_1-2" data-name="Layer 1"><path class="cls-1" d="M4.53,205.62l.31.43.24.47c2.08,4.31,7.37,13.17,14.07,24.43,25.12,42.24,53.58,106.54,59.24,151,20.34,160,85.32,169,161,169,77.73,0,128.56-35.06,171.87-72.94L563.63,344.77a26,26,0,0,0,2.12-36.68,25.64,25.64,0,0,0-19.21-8.6,26.3,26.3,0,0,0-10.87,2.36l-.07-.13c-1.68.84-15.1,7.48-51.73,25.78C466.2,336.32,427.83,354,404,354c-5.12,0-9.56-.81-13-2.68-28.48-15.47-15.72-71.13,8.72-161L431.2,74.17A27.12,27.12,0,0,0,429,53.3a27.39,27.39,0,0,0-16.37-13.22,27.85,27.85,0,0,0-7.81-1.14,27.5,27.5,0,0,0-26.34,20L328.73,202.27c-8.8,25.2-14.72,33.91-23.84,33.91a15.68,15.68,0,0,1-2.51-.22c-10.17-1.57-12.25-11.28-12.54-28.72L287.16,27.42a27.44,27.44,0,1,0-54.88.12l-3.37,171.61c-.43,17.23-2.6,35.18-15.42,37.72a14.08,14.08,0,0,1-2.9.3c-14.79,0-20.07-24.62-22.15-34.24L159.32,64.37a27.39,27.39,0,0,0-26.94-22.71,28,28,0,0,0-4.81.41A27.44,27.44,0,0,0,105.27,74L128.88,238.9c1.51,10.53-2.1,19.43-9.19,22.65a13.44,13.44,0,0,1-5.61,1.22c-5,0-10.32-2.81-15-8.22L42,178.1A23.25,23.25,0,0,0,.28,188.36,22.93,22.93,0,0,0,4.53,205.62Z"/></g></g></svg>