<svg xmlns="http://www.w3.org/2000/svg" viewBox="0 0 528.19 528.19"><defs><style>.cls-1{fill:#333;}</style></defs><title>level</title><g id="Layer_2" data-name="Layer 2"><g id="Layer_1-2" data-name="Layer 1"><path class="cls-1" d="M22.29,436.82h46.8a22.28,22.28,0,0,1,22.29,22.29v46.8a22.29,22.29,0,0,1-22.29,22.28H22.29A22.29,22.29,0,0,1,0,505.91v-46.8A22.28,22.28,0,0,1,22.29,436.82Z"/><path class="cls-1" d="M131.49,436.82h46.8a22.28,22.28,0,0,1,22.29,22.29v46.8a22.29,22.29,0,0,1-22.29,22.28h-46.8a22.28,22.28,0,0,1-22.28-22.28v-46.8A22.28,22.28,0,0,1,131.49,436.82Z"/><path class="cls-1" d="M178.29,436.82a22.28,22.28,0,0,1,22.29,22.29v46.8a22.29,22.29,0,0,1-22.29,22.28h-46.8a22.28,22.28,0,0,1-22.28-22.28v-46.8a22.29,22.29,0,0,1,22.29-22.29Zm0,8.91h-46.8a13.37,13.37,0,0,0-13.37,13.38v46.8a13.37,13.37,0,0,0,13.37,13.37h46.8a13.38,13.38,0,0,0,13.38-13.37v-46.8A13.38,13.38,0,0,0,178.29,445.73Z"/><path class="cls-1" d="M240.69,436.82H287.5a22.28,22.28,0,0,1,22.29,22.29v46.8a22.29,22.29,0,0,1-22.29,22.28H240.69a22.29,22.29,0,0,1-22.28-22.28v-46.8A22.28,22.28,0,0,1,240.69,436.82Z"/><path class="cls-1" d="M287.5,436.82a22.28,22.28,0,0,1,22.29,22.29v46.8a22.29,22.29,0,0,1-22.29,22.28H240.69a22.29,22.29,0,0,1-22.28-22.28v-46.8a22.28,22.28,0,0,1,22.28-22.29Zm0,8.91H240.69a13.37,13.37,0,0,0-13.36,13.38v46.8a13.37,13.37,0,0,0,13.36,13.37H287.5a13.38,13.38,0,0,0,13.37-13.37v-46.8A13.38,13.38,0,0,0,287.5,445.73Z"/><path class="cls-1" d="M349.9,436.82h46.8A22.28,22.28,0,0,1,419,459.11v46.8a22.29,22.29,0,0,1-22.29,22.28H349.9a22.29,22.29,0,0,1-22.29-22.28v-46.8A22.28,22.28,0,0,1,349.9,436.82Z"/><path class="cls-1" d="M396.7,436.82A22.28,22.28,0,0,1,419,459.11v46.8a22.29,22.29,0,0,1-22.29,22.28H349.9a22.29,22.29,0,0,1-22.29-22.28v-46.8a22.28,22.28,0,0,1,22.29-22.29Zm0,8.91H349.9a13.38,13.38,0,0,0-13.37,13.38v46.8a13.38,13.38,0,0,0,13.37,13.37h46.8a13.37,13.37,0,0,0,13.37-13.37v-46.8A13.37,13.37,0,0,0,396.7,445.73Z"/><path class="cls-1" d="M459.11,436.82h46.8a22.28,22.28,0,0,1,22.28,22.29v46.8a22.29,22.29,0,0,1-22.28,22.28h-46.8a22.28,22.28,0,0,1-22.29-22.28v-46.8A22.28,22.28,0,0,1,459.11,436.82Z"/><path class="cls-1" d="M505.91,436.82a22.28,22.28,0,0,1,22.28,22.29v46.8a22.29,22.29,0,0,1-22.28,22.28H459.1a22.28,22.28,0,0,1-22.28-22.28v-46.8a22.28,22.28,0,0,1,22.29-22.29Zm0,8.91H459.1a13.38,13.38,0,0,0-13.37,13.38v46.8a13.38,13.38,0,0,0,13.38,13.37h46.8a13.38,13.38,0,0,0,13.37-13.37v-46.8A13.38,13.38,0,0,0,505.91,445.73Z"/><path class="cls-1" d="M131.49,327.61h46.8a22.29,22.29,0,0,1,22.29,22.29v46.8A22.29,22.29,0,0,1,178.29,419h-46.8a22.28,22.28,0,0,1-22.28-22.29V349.9A22.28,22.28,0,0,1,131.49,327.61Z"/><path class="cls-1" d="M178.29,327.61a22.29,22.29,0,0,1,22.29,22.29v46.8A22.29,22.29,0,0,1,178.29,419h-46.8a22.28,22.28,0,0,1-22.28-22.29V349.9a22.3,22.3,0,0,1,22.29-22.29Zm0,8.92h-46.8a13.37,13.37,0,0,0-13.37,13.37v46.8a13.36,13.36,0,0,0,13.37,13.37h46.8a13.37,13.37,0,0,0,13.38-13.37V349.9A13.38,13.38,0,0,0,178.29,336.53Z"/><path class="cls-1" d="M240.69,327.61H287.5a22.29,22.29,0,0,1,22.29,22.29v46.8A22.29,22.29,0,0,1,287.5,419H240.69a22.29,22.29,0,0,1-22.28-22.29V349.9A22.29,22.29,0,0,1,240.69,327.61Z"/><path class="cls-1" d="M287.5,327.61a22.29,22.29,0,0,1,22.29,22.29v46.8A22.29,22.29,0,0,1,287.5,419H240.69a22.29,22.29,0,0,1-22.28-22.29V349.9a22.29,22.29,0,0,1,22.28-22.29Zm0,8.92H240.69a13.37,13.37,0,0,0-13.36,13.37v46.8a13.36,13.36,0,0,0,13.36,13.37H287.5a13.37,13.37,0,0,0,13.37-13.37V349.9A13.38,13.38,0,0,0,287.5,336.53Z"/><path class="cls-1" d="M240.69,218.41H287.5a22.29,22.29,0,0,1,22.29,22.28V287.5a22.29,22.29,0,0,1-22.29,22.29H240.69a22.29,22.29,0,0,1-22.28-22.29V240.69A22.29,22.29,0,0,1,240.69,218.41Z"/><path class="cls-1" d="M287.49,218.41a22.29,22.29,0,0,1,22.3,22.28V287.5a22.29,22.29,0,0,1-22.29,22.29H240.69a22.29,22.29,0,0,1-22.28-22.29V240.69a22.29,22.29,0,0,1,22.28-22.28Zm0,8.92h-46.8a13.36,13.36,0,0,0-13.36,13.36V287.5a13.37,13.37,0,0,0,13.36,13.37h46.8a13.38,13.38,0,0,0,13.38-13.37V240.69A13.37,13.37,0,0,0,287.49,227.33Z"/><path class="cls-1" d="M349.9,327.61h46.8A22.29,22.29,0,0,1,419,349.9v46.8A22.29,22.29,0,0,1,396.7,419H349.9a22.29,22.29,0,0,1-22.29-22.29V349.9A22.29,22.29,0,0,1,349.9,327.61Z"/><path class="cls-1" d="M396.7,327.61A22.29,22.29,0,0,1,419,349.9v46.8A22.29,22.29,0,0,1,396.7,419H349.9a22.29,22.29,0,0,1-22.29-22.29V349.9a22.29,22.29,0,0,1,22.29-22.29Zm0,8.92H349.9a13.38,13.38,0,0,0-13.37,13.37v46.8a13.37,13.37,0,0,0,13.37,13.37h46.8a13.36,13.36,0,0,0,13.37-13.37V349.9A13.37,13.37,0,0,0,396.7,336.53Z"/><path class="cls-1" d="M349.9,218.41h46.8A22.29,22.29,0,0,1,419,240.69V287.5a22.29,22.29,0,0,1-22.29,22.29H349.9a22.29,22.29,0,0,1-22.29-22.29V240.69A22.29,22.29,0,0,1,349.9,218.41Z"/><path class="cls-1" d="M396.7,218.41A22.29,22.29,0,0,1,419,240.69V287.5a22.29,22.29,0,0,1-22.29,22.29H349.9a22.29,22.29,0,0,1-22.29-22.29V240.69a22.29,22.29,0,0,1,22.29-22.28Zm0,8.92H349.9a13.37,13.37,0,0,0-13.37,13.36V287.5a13.38,13.38,0,0,0,13.37,13.37h46.8a13.37,13.37,0,0,0,13.37-13.37V240.69A13.36,13.36,0,0,0,396.7,227.33Z"/><path class="cls-1" d="M349.9,109.21h46.8A22.28,22.28,0,0,1,419,131.49v46.8a22.29,22.29,0,0,1-22.29,22.29H349.9a22.29,22.29,0,0,1-22.29-22.29v-46.8A22.28,22.28,0,0,1,349.9,109.21Z"/><path class="cls-1" d="M396.7,109.21A22.28,22.28,0,0,1,419,131.49v46.8a22.29,22.29,0,0,1-22.29,22.29H349.9a22.29,22.29,0,0,1-22.29-22.29v-46.8a22.28,22.28,0,0,1,22.29-22.28Zm0,8.91H349.9a13.37,13.37,0,0,0-13.37,13.37v46.8a13.38,13.38,0,0,0,13.37,13.38h46.8a13.37,13.37,0,0,0,13.37-13.38v-46.8A13.36,13.36,0,0,0,396.7,118.12Z"/><path class="cls-1" d="M459.11,327.61h46.8a22.29,22.29,0,0,1,22.28,22.29v46.8A22.29,22.29,0,0,1,505.91,419h-46.8a22.28,22.28,0,0,1-22.29-22.29V349.9A22.28,22.28,0,0,1,459.11,327.61Z"/><path class="cls-1" d="M505.91,327.61a22.29,22.29,0,0,1,22.28,22.29v46.8A22.29,22.29,0,0,1,505.91,419H459.1a22.28,22.28,0,0,1-22.28-22.29V349.9a22.28,22.28,0,0,1,22.29-22.29Zm0,8.92H459.1a13.38,13.38,0,0,0-13.37,13.37v46.8a13.37,13.37,0,0,0,13.38,13.37h46.8a13.37,13.37,0,0,0,13.37-13.37V349.9A13.38,13.38,0,0,0,505.91,336.53Z"/><path class="cls-1" d="M459.11,218.41h46.8a22.29,22.29,0,0,1,22.28,22.28V287.5a22.29,22.29,0,0,1-22.28,22.29h-46.8a22.28,22.28,0,0,1-22.29-22.29V240.69A22.28,22.28,0,0,1,459.11,218.41Z"/><path class="cls-1" d="M505.91,218.41a22.29,22.29,0,0,1,22.28,22.28V287.5a22.29,22.29,0,0,1-22.28,22.29H459.1a22.28,22.28,0,0,1-22.28-22.29V240.69a22.28,22.28,0,0,1,22.29-22.28Zm0,8.92H459.1a13.37,13.37,0,0,0-13.37,13.36V287.5a13.38,13.38,0,0,0,13.38,13.37h46.8a13.38,13.38,0,0,0,13.37-13.37V240.69A13.37,13.37,0,0,0,505.91,227.33Z"/><path class="cls-1" d="M459.11,109.21h46.8a22.28,22.28,0,0,1,22.28,22.28v46.8a22.29,22.29,0,0,1-22.28,22.29h-46.8a22.28,22.28,0,0,1-22.29-22.29v-46.8A22.28,22.28,0,0,1,459.11,109.21Z"/><path class="cls-1" d="M505.91,109.21a22.28,22.28,0,0,1,22.28,22.28v46.8a22.29,22.29,0,0,1-22.28,22.29H459.1a22.28,22.28,0,0,1-22.28-22.29v-46.8a22.28,22.28,0,0,1,22.29-22.28Zm0,8.91H459.1a13.37,13.37,0,0,0-13.37,13.37v46.8a13.38,13.38,0,0,0,13.38,13.38h46.8a13.38,13.38,0,0,0,13.37-13.38v-46.8A13.37,13.37,0,0,0,505.91,118.12Z"/><path class="cls-1" d="M459.11,0h46.8a22.29,22.29,0,0,1,22.28,22.29v46.8a22.28,22.28,0,0,1-22.28,22.28h-46.8a22.28,22.28,0,0,1-22.29-22.28V22.29A22.28,22.28,0,0,1,459.11,0Z"/><path class="cls-1" d="M505.91,0a22.29,22.29,0,0,1,22.28,22.29v46.8a22.28,22.28,0,0,1-22.28,22.28H459.1a22.27,22.27,0,0,1-22.28-22.28V22.29A22.28,22.28,0,0,1,459.11,0Zm0,8.91H459.1a13.38,13.38,0,0,0-13.37,13.38v46.8a13.37,13.37,0,0,0,13.38,13.37h46.8a13.37,13.37,0,0,0,13.37-13.37V22.29A13.38,13.38,0,0,0,505.91,8.91Z"/></g></g></svg>