<svg xmlns="http://www.w3.org/2000/svg" viewBox="0 0 624.94 462.29"><defs><style>.cls-1{fill:#fff;}</style></defs><title>level-w</title><g id="Layer_2" data-name="Layer 2"><g id="Layer_1-2" data-name="Layer 1"><path class="cls-1" d="M102.73,342.44a8.56,8.56,0,1,1,0,17.12H8.56a8.56,8.56,0,1,1,0-17.12Z"/><path class="cls-1" d="M102.73,376.68a8.56,8.56,0,1,1,0,17.12H8.56a8.56,8.56,0,1,1,0-17.12Z"/><path class="cls-1" d="M102.73,410.92a8.56,8.56,0,1,1,0,17.12H8.56a8.56,8.56,0,1,1,0-17.12Z"/><path class="cls-1" d="M102.73,445.17a8.56,8.56,0,1,1,0,17.12H8.56a8.56,8.56,0,1,1,0-17.12Z"/><path class="cls-1" d="M231.14,308.19a8.56,8.56,0,0,1,0,17.12H137a8.56,8.56,0,1,1,0-17.12Z"/><path class="cls-1" d="M231.14,342.44a8.56,8.56,0,0,1,0,17.12H137a8.56,8.56,0,1,1,0-17.12Z"/><path class="cls-1" d="M231.14,376.68a8.56,8.56,0,0,1,0,17.12H137a8.56,8.56,0,0,1,0-17.12Z"/><path class="cls-1" d="M231.14,410.92a8.56,8.56,0,0,1,0,17.12H137a8.56,8.56,0,0,1,0-17.12Z"/><path class="cls-1" d="M231.14,445.17a8.56,8.56,0,0,1,0,17.12H137a8.56,8.56,0,0,1,0-17.12Z"/><path class="cls-1" d="M359.56,239.7a8.57,8.57,0,0,1,0,17.13H265.39a8.57,8.57,0,0,1,0-17.13Z"/><path class="cls-1" d="M359.56,274a8.56,8.56,0,1,1,0,17.12H265.39a8.56,8.56,0,0,1,0-17.12Z"/><path class="cls-1" d="M359.56,308.19a8.56,8.56,0,1,1,0,17.12H265.39a8.56,8.56,0,0,1,0-17.12Z"/><path class="cls-1" d="M359.56,342.44a8.56,8.56,0,1,1,0,17.12H265.39a8.56,8.56,0,0,1,0-17.12Z"/><path class="cls-1" d="M359.56,376.68a8.56,8.56,0,1,1,0,17.12H265.39a8.56,8.56,0,0,1,0-17.12Z"/><path class="cls-1" d="M359.56,410.92a8.56,8.56,0,1,1,0,17.12H265.39a8.56,8.56,0,0,1,0-17.12Z"/><path class="cls-1" d="M359.56,445.17a8.56,8.56,0,1,1,0,17.12H265.39a8.56,8.56,0,0,1,0-17.12Z"/><path class="cls-1" d="M488,137a8.57,8.57,0,0,1,0,17.13H393.8a8.57,8.57,0,0,1,0-17.13Z"/><path class="cls-1" d="M488,171.22a8.56,8.56,0,0,1,0,17.12H393.8a8.56,8.56,0,1,1,0-17.12Z"/><path class="cls-1" d="M488,205.46a8.56,8.56,0,0,1,0,17.12H393.8a8.56,8.56,0,1,1,0-17.12Z"/><path class="cls-1" d="M488,239.7a8.57,8.57,0,0,1,0,17.13H393.8a8.57,8.57,0,0,1,0-17.13Z"/><path class="cls-1" d="M488,274a8.56,8.56,0,0,1,0,17.12H393.8a8.56,8.56,0,1,1,0-17.12Z"/><path class="cls-1" d="M488,308.19a8.56,8.56,0,0,1,0,17.12H393.8a8.56,8.56,0,1,1,0-17.12Z"/><path class="cls-1" d="M488,342.44a8.56,8.56,0,0,1,0,17.12H393.8a8.56,8.56,0,1,1,0-17.12Z"/><path class="cls-1" d="M488,376.68a8.56,8.56,0,0,1,0,17.12H393.8a8.56,8.56,0,1,1,0-17.12Z"/><path class="cls-1" d="M488,410.92A8.56,8.56,0,0,1,488,428H393.8a8.56,8.56,0,1,1,0-17.12Z"/><path class="cls-1" d="M488,445.17a8.56,8.56,0,0,1,0,17.12H393.8a8.56,8.56,0,1,1,0-17.12Z"/><path class="cls-1" d="M616.38,0a8.56,8.56,0,1,1,0,17.12H522.21a8.56,8.56,0,0,1,0-17.12Z"/><path class="cls-1" d="M616.38,34.24a8.57,8.57,0,0,1,0,17.13H522.21a8.57,8.57,0,0,1,0-17.13Z"/><path class="cls-1" d="M616.38,68.49a8.56,8.56,0,1,1,0,17.12H522.21a8.56,8.56,0,0,1,0-17.12Z"/><path class="cls-1" d="M616.38,102.73a8.56,8.56,0,1,1,0,17.12H522.21a8.56,8.56,0,0,1,0-17.12Z"/><path class="cls-1" d="M616.38,137a8.57,8.57,0,0,1,0,17.13H522.21a8.57,8.57,0,0,1,0-17.13Z"/><path class="cls-1" d="M616.38,171.22a8.56,8.56,0,1,1,0,17.12H522.21a8.56,8.56,0,0,1,0-17.12Z"/><path class="cls-1" d="M616.38,205.46a8.56,8.56,0,1,1,0,17.12H522.21a8.56,8.56,0,0,1,0-17.12Z"/><path class="cls-1" d="M616.38,239.7a8.57,8.57,0,0,1,0,17.13H522.21a8.57,8.57,0,0,1,0-17.13Z"/><path class="cls-1" d="M616.38,274a8.56,8.56,0,1,1,0,17.12H522.21a8.56,8.56,0,0,1,0-17.12Z"/><path class="cls-1" d="M616.38,308.19a8.56,8.56,0,1,1,0,17.12H522.21a8.56,8.56,0,0,1,0-17.12Z"/><path class="cls-1" d="M616.38,342.44a8.56,8.56,0,1,1,0,17.12H522.21a8.56,8.56,0,0,1,0-17.12Z"/><path class="cls-1" d="M616.38,376.68a8.56,8.56,0,1,1,0,17.12H522.21a8.56,8.56,0,0,1,0-17.12Z"/><path class="cls-1" d="M616.38,410.92a8.56,8.56,0,1,1,0,17.12H522.21a8.56,8.56,0,0,1,0-17.12Z"/><path class="cls-1" d="M616.38,445.17a8.56,8.56,0,1,1,0,17.12H522.21a8.56,8.56,0,0,1,0-17.12Z"/></g></g></svg>