<svg xmlns="http://www.w3.org/2000/svg" viewBox="0 0 530.39 428.7"><defs><style>.cls-1{fill:#fff;}</style></defs><title>line-w</title><g id="Layer_2" data-name="Layer 2"><g id="Layer_1-2" data-name="Layer 1"><path class="cls-1" d="M530.39,33.18A33.18,33.18,0,1,0,473.22,56l-63.94,118.4-.18,0a32.83,32.83,0,0,0-15.52,4l-45.9-39.23a33.57,33.57,0,0,0,.62-6.15,33.18,33.18,0,1,0-63.25,13.85l-62.5,115.75c-.48,0-.92-.14-1.41-.14a32.82,32.82,0,0,0-21.28,7.93l-46.86-40a32.47,32.47,0,0,0,1.47-9.24A33.18,33.18,0,1,0,96,242.32L37.65,362.79a33,33,0,0,0-4.47-.45,33.24,33.24,0,1,0,27.65,14.88l59.52-123c.32,0,.61.09.93.09a32.93,32.93,0,0,0,14.12-3.25L188,296a33.17,33.17,0,1,0,58.8-21.14l59.41-110A31.49,31.49,0,0,0,332,161.48l44.94,38.4A33.16,33.16,0,1,0,434,185.82L498.55,66.23A33.13,33.13,0,0,0,530.39,33.18Z"/></g></g></svg>