<svg xmlns="http://www.w3.org/2000/svg" viewBox="0 0 419.98 419.95"><defs><style>.cls-1{fill:#333;}</style></defs><title>login</title><g id="Layer_2" data-name="Layer 2"><g id="Layer_1-2" data-name="Layer 1"><polygon class="cls-1" points="117.97 175.02 140.48 197.53 5.38 197.53 5.38 222.99 140.48 222.99 117.97 245.5 135.59 263.13 188.45 210.26 135.59 157.4 117.97 175.02"/><path class="cls-1" d="M114.05,178.44c7.83,7.84,15.18,15.18,23,23,1-2.94,2.44-5.38,3.42-8.32H4.89A5.27,5.27,0,0,0,0,198v25a5.26,5.26,0,0,0,4.89,4.89H140.48c-1-2.93-2.44-5.38-3.42-8.32l-23,23a4.73,4.73,0,0,0,0,6.85L131.67,267a4.74,4.74,0,0,0,6.86,0l52.86-52.86a4.74,4.74,0,0,0,0-6.86l-52.86-52.86a4.74,4.74,0,0,0-6.86,0q-8.8,8.81-17.62,17.62c-4.4,4.41,2.45,11.26,6.85,6.85l17.63-17.62h-6.86l52.87,52.87v-6.86l-52.87,52.87h6.86L120.9,242.57v6.85c7.84-7.83,15.18-15.17,23-23a4.9,4.9,0,0,0-3.43-8.32H4.89l4.9,4.9V198l-4.9,4.9H140.48a4.9,4.9,0,0,0,3.43-8.32l-23-23C117,167.19,109.65,174,114.05,178.44Z"/><path class="cls-1" d="M278.52,5.16V414.87l136.57-45.52V51.18ZM301,224a13.69,13.69,0,0,1-13.71-13.71,13.71,13.71,0,0,1,27.41,0A13.68,13.68,0,0,1,301,224Z"/><path class="cls-1" d="M273.63,5.16V414.87a5.1,5.1,0,0,0,6.36,4.89l136.57-45.52a4.87,4.87,0,0,0,3.42-4.89V50.69c0-2.45-1.47-3.92-3.42-4.9L280,.27c-5.88-2-8.32,7.34-2.45,9.3C318.66,23.28,360.27,37,401.38,50.69c2.94,1,6.86,2.93,9.79,3.42,5.39.49,0,.49-.49-3.42.49,3.42,0,6.85,0,10.28V349.28c0,4.4-1.47,11.74,0,16.15,2,6.36,3.43.49.49.49-8.81,0-20.56,6.85-28.39,9.3-14.68,4.89-28.88,9.79-43.56,14.68l-61.68,20.56c2,1.47,3.92,2.94,6.36,4.9V5.65C282.93-.71,273.63-.71,273.63,5.16Z"/><path class="cls-1" d="M301,219.07c-11.26-.49-11.26-17.62,0-17.62s11.26,17.13,0,17.62c-6.37.49-6.37,10.28,0,9.79,10.28-.49,18.6-7.83,18.6-18.6a18.61,18.61,0,0,0-37.2-1c-.49,10.77,8.32,18.6,18.6,19.09C307.4,229.35,307.4,219.56,301,219.07Z"/><polygon class="cls-1" points="205.59 51.18 205.59 369.83 251.11 369.83 251.11 346.83 228.1 346.83 228.1 73.69 251.11 73.69 251.11 51.18 205.59 51.18"/><path class="cls-1" d="M200.69,51.18V369.83a5.27,5.27,0,0,0,4.9,4.9h45.52a5.26,5.26,0,0,0,4.89-4.9v-23a5.26,5.26,0,0,0-4.89-4.9h-23l4.9,4.9V73.69l-4.9,4.9h23a5.26,5.26,0,0,0,4.89-4.9V51.18a5.26,5.26,0,0,0-4.89-4.9H205.59c-6.37,0-6.37,9.79,0,9.79h45.52l-4.9-4.89V73.69l4.9-4.89h-23a5.27,5.27,0,0,0-4.89,4.89V346.83a5.26,5.26,0,0,0,4.89,4.89h23l-4.9-4.89v23l4.9-4.89H205.59c1.46,1.47,3.42,3.43,4.89,4.89V51.18C210.48,44.81,200.69,44.81,200.69,51.18Z"/></g></g></svg>