<svg xmlns="http://www.w3.org/2000/svg" viewBox="0 0 419.99 419.93"><defs><style>.cls-1{fill:#fff;}</style></defs><title>login-w</title><g id="Layer_2" data-name="Layer 2"><g id="Layer_1-2" data-name="Layer 1"><g id="Layer_2-2" data-name="Layer 2"><g id="Layer_1-2-2" data-name="Layer 1-2"><polygon class="cls-1" points="117.97 175.03 140.48 197.54 5.38 197.54 5.38 223 140.48 223 117.97 245.51 135.59 263.14 188.45 210.27 135.59 157.41 117.97 175.03"/><path class="cls-1" d="M114.05,178.45c7.83,7.84,15.18,15.18,23,23,1-2.94,2.44-5.38,3.42-8.32H4.89A5.27,5.27,0,0,0,0,198v25a5.27,5.27,0,0,0,4.89,4.89H140.48c-1-2.93-2.44-5.38-3.42-8.32l-23,23a4.74,4.74,0,0,0-.16,6.69l.16.16L131.67,267a4.75,4.75,0,0,0,6.7.16l.16-.16,52.86-52.86a4.74,4.74,0,0,0,.16-6.7l-.16-.16-52.86-52.86a4.73,4.73,0,0,0-6.7-.16,1.21,1.21,0,0,0-.16.16q-8.8,8.81-17.62,17.62c-4.4,4.41,2.45,11.26,6.85,6.85l17.63-17.62h-6.86l52.87,52.87v-6.86l-52.87,52.87h6.86L120.9,242.58v6.85l23-23a4.9,4.9,0,0,0-3.43-8.32H4.89l4.9,4.9V198l-4.9,4.9H140.48a4.9,4.9,0,0,0,3.43-8.32l-23-23C117,167.2,109.65,174,114.05,178.45Z"/><path class="cls-1" d="M278.52,5.17V414.88l136.57-45.52V51.19ZM301,224a13.69,13.69,0,0,1-13.71-13.67v0A13.71,13.71,0,1,1,301.05,224Z"/><path class="cls-1" d="M273.63,5.17V414.88a5.1,5.1,0,0,0,5.15,5.05,5.5,5.5,0,0,0,1.21-.16l136.57-45.52a4.87,4.87,0,0,0,3.42-4.89V50.7c0-2.45-1.47-3.92-3.42-4.9L280,.28c-5.88-2-8.32,7.34-2.45,9.3C318.66,23.29,360.27,37,401.38,50.7c2.94,1,6.86,2.93,9.79,3.42,5.39.49,0,.49-.49-3.42.49,3.42,0,6.85,0,10.28V349.29c0,4.4-1.47,11.74,0,16.15,2,6.36,3.43.49.49.49-8.81,0-20.56,6.85-28.39,9.3-14.68,4.89-28.88,9.79-43.56,14.68l-61.68,20.56c2,1.47,3.92,2.94,6.36,4.9V5.66C282.93-.7,273.63-.7,273.63,5.17Z"/><path class="cls-1" d="M301,219.08c-11.26-.49-11.26-17.62,0-17.62s11.26,17.13,0,17.62c-6.37.49-6.37,10.28,0,9.79,10.28-.49,18.6-7.83,18.6-18.6a18.61,18.61,0,0,0-37.2-1c-.49,10.77,8.32,18.6,18.6,19.09C307.4,229.36,307.4,219.57,301,219.08Z"/><polygon class="cls-1" points="205.59 51.19 205.59 369.84 251.11 369.84 251.11 346.84 228.1 346.84 228.1 73.7 251.11 73.7 251.11 51.19 205.59 51.19"/><path class="cls-1" d="M200.69,51.19V369.84a5.27,5.27,0,0,0,4.9,4.9h45.52a5.25,5.25,0,0,0,4.89-4.9v-23a5.25,5.25,0,0,0-4.89-4.9h-23l4.9,4.9V73.7l-4.9,4.9h23A5.25,5.25,0,0,0,256,73.7V51.19a5.25,5.25,0,0,0-4.89-4.9H205.59c-6.37,0-6.37,9.79,0,9.79h45.52l-4.9-4.89V73.7l4.9-4.89h-23a5.27,5.27,0,0,0-4.89,4.89V346.84a5.27,5.27,0,0,0,4.89,4.89h23l-4.9-4.89v23l4.9-4.89H205.59c1.46,1.47,3.42,3.43,4.89,4.89V51.19C210.48,44.82,200.69,44.82,200.69,51.19Z"/></g></g></g></g></svg>