<svg xmlns="http://www.w3.org/2000/svg" viewBox="0 0 464.12 511.99"><defs><style>.cls-1{fill:#fff;}</style></defs><title>logout-w</title><g id="Layer_2" data-name="Layer 2"><g id="Layer_1-2" data-name="Layer 1"><path class="cls-1" d="M158.33,8.07Q81.94,26.83,5.48,45.32C1.05,46.4.84,49,.84,52.52Q.71,132.39.45,212.29L0,443.67c0,4.63,1.06,6.92,5.79,8.51Q92,481.1,178.05,510.45c1.55.52,3.15.89,5.49,1.54.2-3.72.51-7,.54-10.23q.82-82.87,1.59-165.76,1.46-140.71,3-281.44c.2-18.19.56-36.37.85-54.56h-1C178.48,2.69,168.46,5.58,158.33,8.07Zm9.08,262.32c-4.93,5-12.1,4.67-16.49-1.07-5.07-6.61-5.77-14-2.51-21.62,2.06-4.8,5.36-8.4,12.7-8.72,1.37.77,4.3,1.74,6.3,3.67,7,6.7,6.8,20.88,0,27.73Z"/><path class="cls-1" d="M341.13,188.16c.09,5.22-1.62,6.18-6.54,6.15Q279,194,223.46,194h-7.41V318.22c2,.09,3.91.25,5.84.25H334c7,0,7,0,7,7.15v53.76c41-41.17,82.35-82.08,123.08-122.67L341.05,133.62C341.05,151.83,340.81,170,341.13,188.16Z"/><path class="cls-1" d="M281.1,58.91c4.46,0,6.06,1.06,6,5.82-.22,30.38-.07,60.77-.07,91.16v10.26c8,0,16.11.13,24-.22.76,0,2-3.07,2-4.73.15-18.86.11-37.73.11-56.59V38.5c0-3,0-5.36-4.34-5.33-30.38.17-60.77.09-91.15.11a24.56,24.56,0,0,0-2.57.25V59h6C241.05,59,261.05,59.12,281.1,58.91Z"/><path class="cls-1" d="M307.77,346c-6.78.27-13.72.07-20.72.07V437h-76v26.29c2,.09,3.06.25,4.52.25,30.69,0,61.35-.09,92,.12,4.53,0,5.58-1.38,5.56-5.64q-.21-53.29,0-106.59C313.22,347.22,311.88,345.87,307.77,346Z"/></g></g></svg>