<svg xmlns="http://www.w3.org/2000/svg" viewBox="0 0 500.11 499.87"><defs><style>.cls-1{fill:#fff;}</style></defs><title>matrix-w_1</title><g id="Layer_2" data-name="Layer 2"><g id="Layer_1-2" data-name="Layer 1"><circle class="cls-1" cx="248.19" cy="22.07" r="22.07"/><circle class="cls-1" cx="248.19" cy="68.75" r="22.07"/><circle class="cls-1" cx="200.35" cy="68.75" r="22.07"/><circle class="cls-1" cx="295.45" cy="68.75" r="22.07"/><circle class="cls-1" cx="248.19" cy="115.14" r="22.07"/><circle class="cls-1" cx="200.35" cy="115.14" r="22.07"/><circle class="cls-1" cx="295.45" cy="115.14" r="22.07"/><circle class="cls-1" cx="342.71" cy="115.14" r="22.07" transform="translate(105.18 387.7) rotate(-67.5)"/><circle class="cls-1" cx="152.95" cy="115.14" r="22.07" transform="translate(14.8 247.67) rotate(-80.78)"/><circle class="cls-1" cx="200.35" cy="160.98" r="19.78"/><circle class="cls-1" cx="295.45" cy="160.98" r="19.78"/><circle class="cls-1" cx="342.71" cy="161.56" r="19.78"/><circle class="cls-1" cx="152.95" cy="160.98" r="19.78"/><circle class="cls-1" cx="248.19" cy="160.98" r="19.78"/><circle class="cls-1" cx="390.23" cy="160.98" r="19.78"/><circle class="cls-1" cx="106.4" cy="160.98" r="19.78"/><circle class="cls-1" cx="200.35" cy="206.51" r="19.78"/><circle class="cls-1" cx="295.45" cy="206.51" r="19.78"/><circle class="cls-1" cx="342.71" cy="207.09" r="19.78"/><circle class="cls-1" cx="152.95" cy="206.51" r="19.78"/><circle class="cls-1" cx="248.19" cy="206.51" r="19.78"/><circle class="cls-1" cx="390.23" cy="206.51" r="19.78"/><circle class="cls-1" cx="106.4" cy="206.51" r="19.78"/><circle class="cls-1" cx="436.5" cy="206.51" r="19.78"/><circle class="cls-1" cx="61.88" cy="206.51" r="19.78"/><circle class="cls-1" cx="390.23" cy="253.31" r="17.34"/><circle class="cls-1" cx="342.71" cy="253.31" r="17.34"/><circle class="cls-1" cx="295.45" cy="253.31" r="17.34"/><circle class="cls-1" cx="248.19" cy="253.31" r="17.34"/><circle class="cls-1" cx="200.35" cy="253.31" r="17.34"/><circle class="cls-1" cx="106.4" cy="253.31" r="17.34"/><circle class="cls-1" cx="152.95" cy="253.31" r="17.34"/><circle class="cls-1" cx="61.88" cy="253.31" r="17.34"/><circle class="cls-1" cx="17.34" cy="253.31" r="17.34"/><circle class="cls-1" cx="436.5" cy="253.31" r="17.34"/><circle class="cls-1" cx="482.77" cy="253.31" r="17.34"/><circle class="cls-1" cx="248.19" cy="301.23" r="15.69"/><circle class="cls-1" cx="248.19" cy="346.25" r="14.16"/><circle class="cls-1" cx="248.19" cy="392.5" r="12.78"/><circle class="cls-1" cx="248.19" cy="440.76" r="11.48"/><circle class="cls-1" cx="248.19" cy="490.47" r="9.4"/><circle class="cls-1" cx="295.45" cy="301.23" r="15.69"/><circle class="cls-1" cx="342.71" cy="301.23" r="15.69"/><circle class="cls-1" cx="390.23" cy="301.23" r="15.69"/><circle class="cls-1" cx="152.95" cy="301.23" r="15.69"/><circle class="cls-1" cx="200.35" cy="301.23" r="15.69"/><circle class="cls-1" cx="61.88" cy="301.23" r="15.69"/><circle class="cls-1" cx="106.4" cy="301.23" r="15.69"/><circle class="cls-1" cx="436.5" cy="301.23" r="15.69"/><circle class="cls-1" cx="295.45" cy="346.25" r="14.16"/><circle class="cls-1" cx="152.95" cy="346.25" r="14.16"/><circle class="cls-1" cx="200.35" cy="346.25" r="14.16"/><circle class="cls-1" cx="342.71" cy="346.25" r="14.16"/><circle class="cls-1" cx="390.23" cy="346.25" r="14.16"/><circle class="cls-1" cx="106.4" cy="346.25" r="14.16"/><circle class="cls-1" cx="295.45" cy="392.5" r="12.78"/><circle class="cls-1" cx="152.95" cy="392.5" r="12.78"/><circle class="cls-1" cx="200.35" cy="392.5" r="12.78"/><circle class="cls-1" cx="342.71" cy="392.5" r="12.78"/><circle class="cls-1" cx="295.45" cy="440.76" r="11.48"/><circle class="cls-1" cx="200.35" cy="440.76" r="11.48"/></g></g></svg>