<svg xmlns="http://www.w3.org/2000/svg" viewBox="0 0 239.48 269.6"><defs><style>.cls-1{fill:#fff;}</style></defs><title>p1p</title><g id="Layer_2" data-name="Layer 2"><g id="Layer_1-2" data-name="Layer 1"><path class="cls-1" d="M135.25,210c-42.77,0-78.62-34.64-78.62-75.31s36.15-75.31,78.62-75.31V89.47c-25.9,0-48.5,21.08-48.5,45.18s22.6,45.18,48.5,45.18Z"/><path class="cls-1" d="M135,269.6C60.55,269.6,0,209.05,0,134.65S60.55,0,135,0V30.12A104.58,104.58,0,0,0,30.42,134.65c0,57.53,47,104.53,104.53,104.53Z"/><path class="cls-1" d="M135,239.48V209.35a74.55,74.55,0,0,0,74.4-74.4c0-41-33.43-74.7-74.4-74.7V30.12A104.58,104.58,0,0,1,239.48,134.65C239.48,192.18,192.79,239.48,135,239.48Z"/><path class="cls-1" d="M134.65,180.74V150.61a16,16,0,0,0,0-31.93V88.56a46.09,46.09,0,0,1,0,92.18Z"/></g></g></svg>