<svg xmlns="http://www.w3.org/2000/svg" viewBox="0 0 255.39 255.39"><defs><style>.cls-1{fill:#fff;}</style></defs><title>p2p</title><g id="Layer_2" data-name="Layer 2"><g id="Layer_1-2" data-name="Layer 1"><path class="cls-1" d="M127.69,72.78a54.92,54.92,0,1,0,54.92,54.92h0A55,55,0,0,0,127.69,72.78Zm0,95.33a40.42,40.42,0,1,1,40.42-40.41A40.41,40.41,0,0,1,127.69,168.11Z"/><path class="cls-1" d="M127.69,0a127.7,127.7,0,1,0,127.7,127.7A127.69,127.69,0,0,0,127.69,0Zm0,240.87A113.18,113.18,0,1,1,240.87,127.7,113.17,113.17,0,0,1,127.69,240.87Z"/><path class="cls-1" d="M127.69,219A91.32,91.32,0,1,1,219,127.7h0A91.39,91.39,0,0,1,127.69,219Zm0-168.08a76.77,76.77,0,1,0,76.77,76.77h0A76.85,76.85,0,0,0,127.69,50.93Z"/></g></g></svg>