<svg xmlns="http://www.w3.org/2000/svg" viewBox="0 0 550.82 182.26"><defs><style>.cls-1{fill:#fff;}</style></defs><title>p3e</title><g id="Layer_2" data-name="Layer 2"><g id="Layer_1-2" data-name="Layer 1"><path class="cls-1" d="M114.82,101.26a40.55,40.55,0,0,1,41,41c0,22-18,40-41,40-22,0-41-17-41-40A40.55,40.55,0,0,1,114.82,101.26Zm0,15a24.76,24.76,0,0,1,25,25c0,14-11,26-25,26s-26-12-26-26S100.82,116.26,114.82,116.26Z"/><path class="cls-1" d="M8.82,97.26c-10,11-13,24-1,41,15,8,45,17,62,17-2-4-2-9-2-13,0-26,21-48,47-48a48,48,0,0,1,48,48,43,43,0,0,1-2,12l239-1c-1-3-1-7-1-11,0-26,20-48,47-48,26,0,47,21,47,48v11h58v-30l-25-31c-43-22-85-32-134-38-121-74-209-67-323-11l-23,2a39.28,39.28,0,0,0-35,33Zm538,25-22-27-4,3,7,24Zm-304-59-14-48c42,0,119,18,135,55Zm-116-11,100,9-13-46c-36,4-52,6-80,20-5,2-7,6-7,11Z"/><path class="cls-1" d="M445.82,101.26a40.55,40.55,0,0,1,41,41c0,22-18,40-41,40-22,0-41-17-41-40A41.18,41.18,0,0,1,445.82,101.26Zm0,15a24.76,24.76,0,0,1,25,25c0,14-11,26-25,26s-25-12-25-26A24.76,24.76,0,0,1,445.82,116.26Z"/></g></g></svg>