<svg xmlns="http://www.w3.org/2000/svg" viewBox="0 0 314.71 345.17"><defs><style>.cls-1{fill:#fff;}</style></defs><title>pa1p</title><g id="Layer_2" data-name="Layer 2"><g id="Layer_1-2" data-name="Layer 1"><path class="cls-1" d="M194.74,345.17s3.71-1.55,10.65-4.5c1.75-.75,3.69-1.52,5.81-2.46,2.11-1.13,4.39-2.33,6.87-3.71s5.19-2.85,8-4.39,5.56-3.71,8.6-5.67c12.25-7.88,25.65-19.81,38.62-35.68A182.8,182.8,0,0,0,306,227.93a192,192,0,0,0,7-82.77A80.15,80.15,0,0,0,311.1,134c-.82-3.75-1.63-7.5-2.45-11.28-1-3.75-2.32-7.39-3.5-11.12l-1.83-5.6-.94-2.82L301,99.88c-1.45-3.34-2.94-6.67-4.4-10-1.63-3.47-4.11-7.5-6.21-11.25a86.93,86.93,0,0,0-7-10.75,93.39,93.39,0,0,0-7.75-10.11C253.91,31.28,222,11.57,186.2,3.62a164.87,164.87,0,0,0-55.32-2.3l-7,.88c-2.33.34-4.6,1-6.89,1.44-4.54,1.16-9.28,1.85-13.69,3.48L96.66,9.37l-3.34,1.14-1.71.57-.82.32c-.66.28.86-.46-1.59.68l-.33.14c-3.76,1.73-7.12,3.07-11.21,5.1-4.57,2.62-9.6,5.3-13.78,8.15-4,3-8.2,5.6-11.89,8.9A148.88,148.88,0,0,0,31.24,55.69,145.68,145.68,0,0,0,4.68,108.85,139.92,139.92,0,0,0,2,168.34c1.08,4.86,2.13,9.73,3.34,14.53.77,2.38,1.52,4.72,2.36,7L9,193.4l.64,1.74.3.86.16.44c.35.81-.58-1.2.84,1.92l2.43,5.18,1.19,2.61a18.2,18.2,0,0,0,.89,1.62l1.07,1.93q2.2,3.83,4.51,7.57c1.59,2.6,3.06,4.34,4.63,6.5a122.11,122.11,0,0,0,21.49,21.78c8.13,6,16.63,11.36,25.79,15.07,9,4.14,18.5,6.43,27.91,8.23a121.48,121.48,0,0,0,28.25,1l6.91-.65c2.26-.32,4.51-.77,6.77-1.21a92.79,92.79,0,0,0,13.09-3.4,110.93,110.93,0,0,0,12.34-4.77l3-1.31c-.13.09,2.78-1.27,1.66-.77l.26-.16.54-.31,1.07-.59,4.26-2.43c2-1.23,4.3-2.8,6.35-4.19l3.15-2.21c1-.72,1.73-1.45,2.61-2.14,1.66-1.46,3.35-2.9,5-4.35s3.08-3.12,4.59-4.67a103.76,103.76,0,0,0,8.08-9.91,113.34,113.34,0,0,0,6.44-10.62,94.48,94.48,0,0,0,10.9-44.36A90.22,90.22,0,0,0,216.94,133c-5.09-10.82-13.52-21.1-22.05-27.23a71.58,71.58,0,0,0-26-11.94,60.3,60.3,0,0,0-22-1.09,70.1,70.1,0,0,0-8.53,1.59c-2.52.76-4.74,1.58-6.7,2.3a52.71,52.71,0,0,0-8.83,4.48c-4.7,2.88-6.69,5.17-10.07,9,.34-.33,1.79-.27,2.27-.35l4.29-.68c2.92-.46,5.85-.9,8.78-1.18a54.82,54.82,0,0,1,25.31,3.62,51.24,51.24,0,0,1,7.49,3.82,45,45,0,0,1,13.29,12.4c3.91,5.34,6,10.7,7.55,18.3a52.58,52.58,0,0,1-10.46,43.17,47.65,47.65,0,0,1-8.51,8.1l-2.33,1.76-2.57,1.48a13.39,13.39,0,0,1-1.22.69l-1,.4c-.68.26-1.08.49-1.92.9l-4.53,1.88-1.12.44-.58.24-.26.11c-1.31.59,1.44-.63,1.07-.52l-1.63.41a50.74,50.74,0,0,1-6.59,1.54,44.77,44.77,0,0,1-6.73.79c-1.12.06-2.24.22-3.36.27l-3.36-.11a61.61,61.61,0,0,1-26.41-6.93c-4.25-1.94-8-4.8-11.72-7.53-3.41-3.19-7-6.25-9.76-10.12-.61-.9-1.73-1.95-2.06-2.62s-1-1.42-1.49-2.09l-.42-.51a2.91,2.91,0,0,1-.52-.83l-1.31-2.55-2.62-5.1c1.36,2.94.33.67.61,1.26l-.1-.23-.18-.48-.38-1L69.5,167c-.49-1.28-1-2.55-1.64-3.8l-2.47-7.87a86.09,86.09,0,0,1-1.92-33.8A84.76,84.76,0,0,1,75.81,88.33,77,77,0,0,1,87.3,74.13c2.08-2.28,4.63-4,6.91-6.11,2.29-1.86,4.38-3.09,6.52-4.83,3-1.78,6.94-3.75,10.35-5.6l8.06-3.32c3-1.48,6.3-2,9.46-3.1,1.59-.46,3.13-1.06,4.77-1.41l4.86-.92A118,118,0,0,1,178,47.76c26.24,4.18,51.42,16.37,69.59,35.2a66.88,66.88,0,0,1,6.57,7.22,61.5,61.5,0,0,1,5.82,7.41c1.71,2.6,3.45,4.62,5.2,7.63,1.75,3.21,3.49,6.43,5.2,9.63L271,116l.33.6c.38.81-.33-.74-.21-.48l.13.28.93,2.27,1.89,4.51c1.21,3,2.64,6,3.71,9s1.9,6.16,2.85,9.18a65.65,65.65,0,0,1,2.48,9.18,164.93,164.93,0,0,1,.46,71.38,168.26,168.26,0,0,1-23.76,57c-10.3,15.52-21.49,27.87-32,36.48-2.61,2.14-4.93,4.53-7.39,6.19s-4.77,3.36-6.93,4.86-4.15,2.91-6,4.21L202,333.75l-10.09,5.66Z"/></g></g></svg>