<svg xmlns="http://www.w3.org/2000/svg" viewBox="0 0 369.67 245.23"><defs><style>.cls-1{fill:#fff;}</style></defs><title>pa2o</title><g id="Layer_2" data-name="Layer 2"><g id="Layer_1-2" data-name="Layer 1"><path class="cls-1" d="M78.12,68.49c0-28.42,28.41-25.86,106.56-25.86s105.53-1.78,105.53,26.63h78.14C368.35-1.78,291.24,0,184.68,0,71,0,0-1.78,0,69.26H78.16"/><path class="cls-1" d="M78.15,75.32v7.11c0,7.11,0,14.21-14.2,14.21H14.21C0,96.64,0,89.54,0,82.43V75.32Z"/><path class="cls-1" d="M369.67,75.32v7.11c0,7.11,0,14.21-14.21,14.21H305.72c-14.21,0-14.21-7.1-14.21-14.21h0V75.32Z"/><circle class="cls-1" cx="160.14" cy="187.08" r="4.93"/><circle class="cls-1" cx="184.85" cy="197.31" r="4.93"/><circle class="cls-1" cx="160.13" cy="137.67" r="4.93"/><circle class="cls-1" cx="184.84" cy="127.43" r="4.93"/><path class="cls-1" d="M270.09,88.77c-7.1-14.21-14.2-14.21-21.3-14.21H120.9c-7.1,0-14.21,0-21.3,14.21-49.74,127.89-49.74,99.55-49.74,128v.08c0,21.3,7.11,28.41,21.31,28.41H298.51c14.21,0,21.3-7.11,21.3-28.41v-.08C319.81,188.31,319.81,216.64,270.09,88.77ZM184.84,210.46a50.57,50.57,0,1,1,50.56-50.57A50.57,50.57,0,0,1,184.84,210.46Z"/><circle class="cls-1" cx="149.91" cy="162.37" r="4.93"/><circle class="cls-1" cx="184.84" cy="159.89" r="14.26"/><circle class="cls-1" cx="219.79" cy="162.36" r="4.93"/><circle class="cls-1" cx="209.56" cy="187.07" r="4.93"/><circle class="cls-1" cx="209.55" cy="137.67" r="4.93"/></g></g></svg>