<svg xmlns="http://www.w3.org/2000/svg" viewBox="0 0 498.89 573.92"><defs><style>.cls-1{fill:#333;}</style></defs><title>period</title><g id="Layer_2" data-name="Layer 2"><g id="Layer_1-2" data-name="Layer 1"><rect class="cls-1" x="130.05" y="442.75" width="107.63" height="53.81"/><rect class="cls-1" x="130.05" y="518.99" width="107.63" height="54.93"/><rect class="cls-1" x="130.05" y="364.27" width="107.63" height="54.93"/><rect class="cls-1" x="261.22" y="518.99" width="107.63" height="54.93"/><rect class="cls-1" x="130.05" y="286.92" width="107.63" height="54.93"/><rect class="cls-1" x="261.22" y="286.92" width="107.63" height="54.93"/><rect class="cls-1" x="261.22" y="364.27" width="107.63" height="54.93"/><rect class="cls-1" x="261.22" y="442.75" width="107.63" height="53.81"/><rect class="cls-1" x="391.27" y="442.75" width="107.63" height="53.81"/><rect class="cls-1" x="391.27" y="286.92" width="107.63" height="54.93"/><path class="cls-1" d="M498.89,568.15V519H391.27v54.93H493A5.57,5.57,0,0,0,498.89,568.15Z"/><rect class="cls-1" x="391.27" y="364.27" width="107.63" height="54.93"/><path class="cls-1" d="M6.61,573.92h101V519H0v49.16C0,571.58,3.18,573.92,6.61,573.92Z"/><rect class="cls-1" y="442.75" width="107.63" height="53.81"/><rect class="cls-1" y="286.92" width="107.63" height="54.93"/><rect class="cls-1" y="364.27" width="107.63" height="54.93"/><path class="cls-1" d="M100.34.57A19.6,19.6,0,0,0,80.72,20V139A19.62,19.62,0,0,0,120,139V20A19.6,19.6,0,0,0,100.34.57Z"/><path class="cls-1" d="M394.63,0a19.12,19.12,0,0,0-19.06,19.45v119a19.06,19.06,0,1,0,38.12,0v-119A19.12,19.12,0,0,0,394.63,0Z"/><path class="cls-1" d="M493,118.75H437.23v19.69a42.6,42.6,0,0,1-85.2,0V118.75H143.5V139a42.6,42.6,0,0,1-85.2,0V118.75H6.61A6.78,6.78,0,0,0,0,125.22V264.5H498.89V125.22C498.89,121.78,496.45,118.75,493,118.75Z"/></g></g></svg>