<svg xmlns="http://www.w3.org/2000/svg" viewBox="0 0 572.55 550.88"><defs><style>.cls-1{fill:#f2f3f4;}</style></defs><title>right-hand-picker-modal</title><g id="Layer_2" data-name="Layer 2"><g id="Layer_1-2" data-name="Layer 1"><g id="Layer_2-2" data-name="Layer 2"><g id="Layer_1-2-2" data-name="Layer 1-2"><path class="cls-1" d="M567.79,205.55l-.31.43-.23.47c-2.08,4.31-7.37,13.17-14.08,24.43-25.11,42.24-53.58,106.54-59.23,151-20.34,160-85.33,169-161,169-77.73,0-128.56-35.06-171.86-72.94L8.7,344.7A26,26,0,0,1,6.57,308a25.66,25.66,0,0,1,19.21-8.6,26.37,26.37,0,0,1,10.88,2.36l.06-.13c1.69.84,15.1,7.48,51.73,25.78,17.67,8.82,56,26.47,79.92,26.47,5.12,0,9.56-.81,13-2.68,28.48-15.47,15.73-71.13-8.71-161L141.12,74.1a27.08,27.08,0,0,1,2.21-20.87A27.39,27.39,0,0,1,159.7,40a27.84,27.84,0,0,1,7.81-1.14,27.51,27.51,0,0,1,26.35,20l49.73,143.36c8.81,25.2,14.72,33.91,23.84,33.91a16.26,16.26,0,0,0,2.51-.22c10.17-1.57,12.25-11.28,12.54-28.72l2.69-179.82a27.44,27.44,0,0,1,54.88.12l3.36,171.61c.43,17.23,2.61,35.18,15.43,37.72a14,14,0,0,0,2.89.3c14.79,0,20.07-24.62,22.15-34.24L413,64.3a27.41,27.41,0,0,1,26.94-22.71,28.74,28.74,0,0,1,4.81.41,27.43,27.43,0,0,1,22.33,31.73l0,.2-23.61,164.9c-1.51,10.53,2.1,19.43,9.19,22.65a13.55,13.55,0,0,0,5.61,1.22c5,0,10.32-2.81,15-8.22L530.37,178A23.24,23.24,0,1,1,568.25,205c-.14.2-.28.4-.43.59Z"/></g></g></g></g></svg>