<svg xmlns="http://www.w3.org/2000/svg" viewBox="0 0 187.28 140.6"><defs><style>.cls-1{fill:#fff;}</style></defs><title>right-w</title><g id="Layer_2" data-name="Layer 2"><g id="Layer_1-2" data-name="Layer 1"><path class="cls-1" d="M186.49,68.63l-68-68a2.26,2.26,0,0,0-3.13,0L96.17,20a2.26,2.26,0,0,0,0,3.13l31.71,32.33H2.29A2.31,2.31,0,0,0,0,57.78V84.69A2.31,2.31,0,0,0,2.29,87H127.88L96.17,118.07a2.26,2.26,0,0,0,0,3.13L115.36,140a2.26,2.26,0,0,0,3.13,0l58.82-58.61h0l9.18-9.6A2,2,0,0,0,186.49,68.63Z"/></g></g></svg>