<svg xmlns="http://www.w3.org/2000/svg" viewBox="0 0 352.7 290"><defs><style>.cls-1{fill:#fff;}</style></defs><title>s1fas</title><g id="Layer_2" data-name="Layer 2"><g id="Layer_1-2" data-name="Layer 1"><path class="cls-1" d="M26,215.66H64.68V74.34H26a26,26,0,0,0-26,26H0v89.28a26,26,0,0,0,26,26Z"/><path class="cls-1" d="M80.62,215.66,188.41,288a11.82,11.82,0,0,0,6.58,2h2.33a9.47,9.47,0,0,0,9.47-9.47V9.47A9.47,9.47,0,0,0,197.32,0H195a11.82,11.82,0,0,0-6.58,2L80.62,74.34Z"/><path class="cls-1" d="M238.7,195.51l.17.17a9.74,9.74,0,0,0,13.6.17,70.09,70.09,0,0,0,2.62-99.08c-.85-.9-1.72-1.77-2.62-2.63a9.73,9.73,0,0,0-13.56.13l-.21.21a9.71,9.71,0,0,0,.09,13.72l.25.23a50.46,50.46,0,0,1,1.8,71.33c-.58.61-1.18,1.21-1.8,1.79a9.71,9.71,0,0,0-.58,13.71Z"/><path class="cls-1" d="M266.51,66.67l-.15.15a9.58,9.58,0,0,0-.09,13.55l.12.12a89.36,89.36,0,0,1,2.69,126.34c-.88.92-1.77,1.81-2.69,2.69a9.58,9.58,0,0,0-.13,13.55l.11.11.15.16a9.65,9.65,0,0,0,13.48.21,108.78,108.78,0,0,0,3.26-153.82q-1.61-1.68-3.28-3.28A9.64,9.64,0,0,0,266.51,66.67Z"/><path class="cls-1" d="M294.22,39l-.18.18a9.67,9.67,0,0,0,.06,13.67l.12.12a128.48,128.48,0,0,1,2.49,181.69c-.81.83-1.63,1.66-2.47,2.47a9.67,9.67,0,0,0-.28,13.67l.11.12.18.18a9.69,9.69,0,0,0,13.6.1,148,148,0,0,0,3-209.29q-1.49-1.53-3-3A9.69,9.69,0,0,0,294.22,39Z"/></g></g></svg>