<svg xmlns="http://www.w3.org/2000/svg" viewBox="0 0 323 323"><defs><style>.cls-1{fill:#fff;}</style></defs><title>s2f</title><g id="Layer_2" data-name="Layer 2"><g id="Layer_1-2" data-name="Layer 1"><path class="cls-1" d="M244.5,172.6h-49c-4.67,0-8.45-4.75-8.45-10.6s3.78-10.6,8.45-10.6h49V116.07a3,3,0,0,1,4.62-2.55l72.47,45.42a3.11,3.11,0,0,1,1,1,3,3,0,0,1-1,4.16l-72.47,45.42a3,3,0,0,1-1.61.47,3,3,0,0,1-3-3Zm-166,0v34.33a3,3,0,0,1-3,3,3,3,0,0,1-1.61-.47L1.41,164.06a3,3,0,0,1-.95-4.16,3.11,3.11,0,0,1,1-1l72.47-45.42a3,3,0,0,1,4.62,2.55V151.4h49c4.67,0,8.45,4.75,8.45,10.6s-3.78,10.6-8.45,10.6Zm94.1-94.1v49c0,4.67-4.75,8.45-10.6,8.45s-10.6-3.78-10.6-8.45v-49H116.07a3,3,0,0,1-2.55-4.62L158.94,1.41a3.11,3.11,0,0,1,1-.95,3,3,0,0,1,4.16,1l45.42,72.47a3,3,0,0,1,.47,1.61,3,3,0,0,1-3,3Zm-22.2,166v-49c0-4.67,4.75-8.45,10.6-8.45s10.6,3.78,10.6,8.45v49h35.33a3,3,0,0,1,2.55,4.62l-45.42,72.47a3.11,3.11,0,0,1-1,1,3,3,0,0,1-4.16-1l-45.42-72.47a3,3,0,0,1-.47-1.61,3,3,0,0,1,3-3Z"/></g></g></svg>