<svg xmlns="http://www.w3.org/2000/svg" viewBox="0 0 353.87 370.64"><defs><style>.cls-1{fill:#fff;}</style></defs><title>s3a</title><g id="Layer_2" data-name="Layer 2"><g id="Layer_1-2" data-name="Layer 1"><path class="cls-1" d="M140.52,252.28c-5.51,3.31-9.67.87-15.2-.59-4.82-1.28-8.37.89-12.87,1.73-15.84,2.92-16.74-15.83-28.58-20.56-2.72,7.18-1.42,14.44-2,21.85-.81,10.85-1.61,21.73-3.09,32.51-2.33,16.94,2.2,35-2.26,51.75-1.81,6.82-3.83,17.36-9.57,22.09-3,2.49-16.94,3.84-19.28.64s-17.36-.37-21.84-2.4c-10.84-4.94-2.44-11.17,3.38-16.73,5.49-5.26,12.49-8.15,14.78-16,2.45-8.41,2.9-22,.45-30.19-2.25-7.5,1.07-15.75-.12-23.57-1.87-12.28-4.75-22.47-3.47-35.25,1.17-11.62,4.76-21.27.49-33-2.8-9.53-4.92-17.4-2.14-27.36,4.33-15.55,4.75-34.79,11.53-49.36,1.34-2.88,6.1-6.38,4.83-9-2.31-4.77-4.6-10.22-8.15-14.21-5.4-9.21-8.9-20-8.9-30.75-8,19.23-30.48-11.1-32-21.05C4.2,45.69-3.86,33.44,2.23,26.42c4.39-5.07,13.57-7.66,19.32-10.64S35.2,10.08,40,5.59A17.53,17.53,0,0,1,49.23,1C55,.12,61.33,7.42,64.88,5.83,75,1.26,86.22,1.48,97.09.53,105.9-.24,117.8,0,124.73,6.22c4.11-6.17,10.18-8,16.59-4.34,7.81,4.46,10.48,7.64,19.81,9.48C176,14.3,184.46,22.11,183.27,37.27c-1.13,14.42-1.41,29.63-5,43.71-1.14,4.48-4.46,12.76-9.05,5.77-4.9-7.46-11.31-18.15-11.72-27.11-1.47,6.71-2.35,13.42-3.4,20.17-.57,3.61-7.47,21.6-7,22.37,1.93,3.34,1.3,6.39,5.19,6.44q7.83.09,15.64.95c9.54,1.05,18.88,5.51,28.33,5.9,15.78.64,32.29-14.24,45.81-21.28C263.68,82.94,286.89,74,311.5,73.36c9.41-.25,19.68.45,28.38,4.3,2.56,1.13,16.49,3.69,13.6,5.59-11.17,7.36-24.54,8.25-37.7,9.22-16.34,1.21-32.83,6.84-46.93,15a101.63,101.63,0,0,0-30,26.23c-.06,1.25,3.18,4.84,3.81,5.87a135.2,135.2,0,0,1,9.24,17.9c6.54,15.51,8,32.34,14.5,48,7.19,17.36,6.29,36.88,14.17,53.72,4.88,10.42,1.78,27.78,1.88,39.12.08,8.29.08,16.68,1.05,24.92.65,5.53,3.12,10.6,3.4,16.22.72,14.18-25.36,6.16-32.88,5.9-10.74-.38,2.89-27.25,3.65-32.37,1.27-8.72.35-18.12-1.07-26.83-1.31-8-5.29-13.2-4.6-21.59.65-8-3.92-11.86-9.91-15.53-8-4.91-15.75-12.07-18.22-21.44-13.38,6-31.59,7.54-32,25.67-.33,15.89-.52,31.91-2.06,47.73-1.29,13.16-6,32.23-.7,44.6,2.51,5.82,7.32,18.3.34,22.84-3.3,2.36-6.78,0-10.21,1-5.44,1.59-11.68,1.93-16.91-.57-2.43-.19-5.25.95-7.81.85-3.24-.12-8.83-4-10.57-2.78-7,4.84-.34-19.31.12-20.39,2.05-4.75,4.1-10.07,4.1-15.31-1.12-1.75-8.15.19-8.9-2.83-3-.42-6.58.57-9.63.49-3.73-.09-5.73-1.87-8.64-2.62-8.8-2.27-2.25-9.83,1.54-13.85,3.5-3.72,7-3.46,10.87-5.79,3-1.79,5.3-7.18,7.48-9.8,4.67-7.31,6.45-15.67,8-24.09C150.35,264.47,144.76,258.65,140.52,252.28Z"/></g></g></svg>