<svg xmlns="http://www.w3.org/2000/svg" viewBox="0 0 503.95 389.54"><defs><style>.cls-1{fill:#fff;}</style></defs><title>statistics-w</title><g id="Layer_2" data-name="Layer 2"><g id="Layer_1-2" data-name="Layer 1"><path class="cls-1" d="M151.13,215.4a68.3,68.3,0,0,0,48.37-20L151.13,147V78.55a68.43,68.43,0,0,0,0,136.85Z"/><path class="cls-1" d="M159.55,82.33V143L202.48,186A60.71,60.71,0,0,0,159.55,82.33Z"/><rect class="cls-1" x="283.14" y="209.11" width="38.67" height="112.08"/><rect class="cls-1" x="335.3" y="166.8" width="38.67" height="154.4"/><rect class="cls-1" x="387.46" y="130.74" width="38.66" height="190.46"/><rect class="cls-1" x="82.72" y="241.27" width="100.94" height="17.58"/><rect class="cls-1" x="82.72" y="272.42" width="129.17" height="17.6"/><rect class="cls-1" x="82.72" y="303.62" width="129.17" height="17.58"/><path class="cls-1" d="M504,47c0-26-19.6-47-43.8-47H43.82C19.62,0,0,21,0,47V389.54H503.94V47ZM462.32,352H41.65V62.1c0-10.37,7.84-18.8,17.54-18.8H444.8c9.68,0,17.52,8.45,17.52,18.8Z"/></g></g></svg>