<svg xmlns="http://www.w3.org/2000/svg" viewBox="0 0 253.13 353.01"><defs><style>.cls-1{fill:#fff;}</style></defs><title>student-w</title><g id="Layer_2" data-name="Layer 2"><g id="Layer_1-2" data-name="Layer 1"><g id="Layer_2-2" data-name="Layer 2"><g id="Layer_1-2-2" data-name="Layer 1-2"><path class="cls-1" d="M126.56,153.76A76.88,76.88,0,1,0,49.68,76.88h0A77,77,0,0,0,126.56,153.76Z"/><polygon class="cls-1" points="228.85 192.95 228.85 192.95 128.88 204.34 128.88 271.6 128.88 353.01 253.13 338.86 253.13 190.19 228.85 192.95"/><polygon class="cls-1" points="0 190.19 0 338.86 124.24 353.01 124.24 271.6 124.24 204.34 24.28 192.95 0 190.19"/><path class="cls-1" d="M160.84,157.3H92.29a79.88,79.88,0,0,0-63.52,31.49l97.79,11.14,97.81-11.14A80,80,0,0,0,160.84,157.3Z"/></g></g></g></g></svg>