<svg xmlns="http://www.w3.org/2000/svg" viewBox="0 0 361 361"><defs><style>.cls-1{fill:#2ecc71;}</style></defs><title>success-g</title><g id="Layer_2" data-name="Layer 2"><g id="Layer_1-2" data-name="Layer 1"><path class="cls-1" d="M180.5,0C81,0,0,80.62,0,180.5,0,280,81,361,180.5,361S361,280,361,180.5C361,80.62,280,0,180.5,0Zm91.05,133.17L157.24,247.49a7.78,7.78,0,0,1-11.24,0L89.85,191.33a7.94,7.94,0,0,1,11.23-11.23l50.54,50.54,108.7-108.7a7.75,7.75,0,0,1,11.23,0C274.76,124.75,274.76,130,271.55,133.17Z"/></g></g></svg>