<svg xmlns="http://www.w3.org/2000/svg" viewBox="0 0 430.67 361.8"><defs><style>.cls-1{fill:#333;}</style></defs><title>teacher</title><g id="Layer_2" data-name="Layer 2"><g id="Layer_1-2" data-name="Layer 1"><circle class="cls-1" cx="307.72" cy="122.51" r="55.04"/><path class="cls-1" d="M425,272.31l-6.22-7.66-49.29-64.13a20.85,20.85,0,0,0-10.53-7.66,29,29,0,0,0-16.75-5.26H273.26a28.22,28.22,0,0,0-18.66,7.18,17.9,17.9,0,0,0-7.18,6.22L200,263.69l-56.95-52.16a18.64,18.64,0,0,0-11-3.35,19.62,19.62,0,0,0-5.27.48L91.89,104.81A6.21,6.21,0,0,0,86.14,101a2.86,2.86,0,0,0-1.91.48,6.26,6.26,0,0,0-3.83,7.65l35.89,106.73h0c-6.7,8.13-5.26,20.57,3.35,27.27l54.08,59.35a27.46,27.46,0,0,0,13.4,6.7,53,53,0,0,0,8.14.95,36.17,36.17,0,0,0,30.15-15.79h0l19.14-24.88v80.4a11.84,11.84,0,0,0,12,12H359.89a11.84,11.84,0,0,0,12-12V348.4l50.73-42.11C432.15,297.67,433.59,282.36,425,272.31Zm-53.6,24.4V267.52l13.88,17.71Z"/><path class="cls-1" d="M101,231.63c-1-6.22.48-12,2.87-17.23L69.39,112.46a18.68,18.68,0,0,1,1-13.4A16.34,16.34,0,0,1,80.4,90.45a23.93,23.93,0,0,1,5.74-1,16.94,16.94,0,0,1,16.27,12l32.07,95.71a28.45,28.45,0,0,1,14.83,5.74l.48.48.48.48,47.86,43.07,40.2-53.12a33.24,33.24,0,0,1,9.57-8.61c6.22-4.79,13.4-8.14,21.06-8.62A65.93,65.93,0,0,1,241.2,123a66.52,66.52,0,1,1,133,0,65.92,65.92,0,0,1-27.75,53.6c6.22.48,12.44,2.87,18.18,6.22a31.85,31.85,0,0,1,13.88,11l36.85,48.34V18.66A18.69,18.69,0,0,0,396.74,0H18.66A19,19,0,0,0,0,18.66v269a18.69,18.69,0,0,0,18.66,18.67h143.1l-49.77-55A29.24,29.24,0,0,1,101,231.63Zm-8.62,54.56H28.24V273.26a14.1,14.1,0,0,1,14.35-14.35H78a14.1,14.1,0,0,1,14.35,14.35Z"/><path class="cls-1" d="M230.67,306.76h2.39v-3.35l-.47.48Z"/></g></g></svg>