<svg xmlns="http://www.w3.org/2000/svg" viewBox="0 0 323.17 285.15"><defs><style>.cls-1{fill:#f4d03f;}</style></defs><title>warning-y</title><g id="Layer_2" data-name="Layer 2"><g id="Layer_1-2" data-name="Layer 1"><path class="cls-1" d="M320.4,254.63,179.15,10.11a20.31,20.31,0,0,0-35.13,0L2.77,254.63c-7.8,13.49,1.78,30.52,17.39,30.52H302.65A20.33,20.33,0,0,0,320.4,254.63ZM157.15,85a18.41,18.41,0,0,1,20.94,9.94,15.71,15.71,0,0,1,1.42,8.87c-.71,8.88-1.07,17.75-1.42,27-.71,13.84-1.78,28-2.49,41.87-.35,4.26-.35,8.52-.71,13.13a13.4,13.4,0,0,1-13.48,13.13,13.59,13.59,0,0,1-13.49-12.77c-1.06-21.65-2.48-43.3-3.55-64.95-.35-5.67-.71-11.71-1.06-17.39C143.31,95.29,149,87.12,157.15,85Zm4.61,162.54A17.87,17.87,0,0,1,144,229.43a18.18,18.18,0,0,1,18.1-18.1c9.93,0,17.74,8.17,17.74,18.46C179.51,239.37,171.34,247.53,161.76,247.53Z"/></g></g></svg>