<svg xmlns="http://www.w3.org/2000/svg" viewBox="0 0 533.5 533.5"><defs><style>.cls-1{fill:#cd6155;}</style></defs><title>wrong-r</title><g id="Layer_2" data-name="Layer 2"><g id="Layer_1-2" data-name="Layer 1"><path class="cls-1" d="M266.75,0C119.62,0,0,119.62,0,266.75S119.62,533.5,266.75,533.5,533.5,413.88,533.5,266.75,413.88,0,266.75,0ZM385.8,342.56c4.5,4.5,4.5,11.23,0,15.17L357.73,385.8c-4.5,4.5-11.24,4.5-15.17,0L266.75,310,190.94,385.8c-4.5,4.5-11.23,4.5-15.17,0L147.7,357.73c-4.5-4.5-4.5-11.24,0-15.17l75.81-75.81L147.7,190.94c-4.5-4.5-4.5-11.23,0-15.17l28.07-28.07c4.5-4.5,11.24-4.5,15.17,0l75.81,75.81,75.81-75.81c4.5-4.5,11.23-4.5,15.17,0l28.07,28.07c4.5,4.5,4.5,11.24,0,15.17L310,266.75Z"/></g></g></svg>